<?xml version="1.0" encoding="UTF-8"?><svg id="Layer_2" xmlns="http://www.w3.org/2000/svg" viewBox="0 0 240.78 152.13"><defs><style>.cls-1{fill:#fff;stroke-width:0px;}</style></defs><g id="Layer_1-2"><path class="cls-1" d="M143.91,11.09c-.02,7.6-12.08,7.54-12.11,0,.46-6.68,11.63-6.64,12.11,0h0ZM140.23,11.09c.22-2.73-4.96-2.67-4.75,0,.31,1.78,4.43,1.74,4.75,0h0ZM78.27,11.09c-.02,7.6-12.08,7.54-12.11,0,.46-6.68,11.63-6.64,12.11,0h0ZM74.59,11.09c.22-2.73-4.96-2.67-4.75,0,.31,1.78,4.43,1.74,4.75,0h0ZM226.23,104.02c-.45.29-.86.62-1.22.99-1.49,1.53-3.43,2.53-5.56,2.53h-6.11v-25.39h9.07c2.94,0,5.84.71,8.45,2.07v-10.84h-43.79v10.84c2.61-1.36,5.51-2.07,8.45-2.07h9.04v25.39h-16.73c-.51-1.68-1.45-3.25-2.83-4.52l-21.7-20c-1.59-1.8-3.01-3.74-4.26-5.8-.6-.99-.79-2.19-.6-3.34l.09-.54h-13.77c1.37,4.16,2.07,8.5,2.07,12.88v21.31h-35.55l23.47-42.35c3.26-5.32,5.14-11.57,5.15-18.26h45.73c4.57,0,8.27-3.7,8.27-8.27v-3.88h13.51c4.18,0,8.41.16,12.53-.64,1.6-.31,3.24-.7,4.72-1.41,2.4-1.16,4.09-3.38,5.05-5.82,1.13-2.87,1.54-5.89.64-8.89-.23-.77-.54-1.53-.93-2.24-1.06-1.96-2.71-3.58-4.75-4.51-.89-.41-1.83-.67-2.8-.82-3.15-.48-6.86-.45-9.76,1.59-6.79,4.77-2.69,17.09,5.95,15.47,4.88-.52,7.9-5,4.47-9.08-2.04-2.37-5.66-2.14-7.46.06,1.94-.3,4,.15,4.49,1.99.23.85-.19,2.01-1,2.41-1.68.82-3.91.19-4.83-1.45-.65-1.17-.84-2.64-.44-3.92.24-.78.71-1.47,1.39-1.92,1.64-1.12,4.04-1.15,6.2-.85,2.11.29,4.02,1.55,4.88,3.49,1.21,2.73.7,6.3-1,8.73-.2.28-.42.55-.66.79-1.2,1.23-2.86,1.85-4.52,2.19-1.64.33-3.33.42-5,.45h-74.68v-7.97c2.68-.49,5.24-1.95,7.1-4.46,2.53-3.42,2.9-8.11.89-11.86-1.88-3.52-5.25-5.72-9.07-6.06-3.52-.31-6.96,1.02-9.4,3.7-3.49,3.84-3.84,9.78-.86,14.03,1.74,2.48,4.25,4.02,6.95,4.59v8.02h-61.03v-8.01c2.13-.44,4.17-1.48,5.84-3.19,3.61-3.72,4.23-9.62,1.41-13.97-1.95-3.01-5.06-4.86-8.55-5.17-3-.26-5.94.66-8.25,2.6-2.31,1.94-3.73,4.67-4,7.68-.26,3.01.66,5.94,2.6,8.25,1.74,2.08,4.08,3.36,6.56,3.82v7.98H24.67c-4.2,0-7.95,3.01-8.49,7.18-.65,5.04,3.28,9.36,8.2,9.36h45.73c0,5.35,1.21,10.42,3.36,14.96.06.12.11.24.17.35l2.02,3.58,23.55,41.72h-43.32l-6.36-26.01c-.65-2.66-.63-5.44.05-8.09l.02-.09h-16.36l.02.09c.68,2.65.7,5.43.05,8.09l-6.36,26.01h-5.74c-2.03,0-3.99-.83-5.36-2.32-3.02-3.29-8.86-3.86-12.62-1.2-4.16,2.67-4.33,8.9-.41,11.97,3.97,3.53,10.48,2.53,13.42-1.38,1.33-1.76,3.5-2.68,5.7-2.68h3.94l-7.94,32.47c-.58,2.36-1.78,4.51-3.48,6.24l-1.26,1.27h13.86l-.09-.34c-.59-2.31-.6-4.72-.03-7.03l7.98-32.61h13.02l7.97,32.62c.56,2.31.55,4.73-.03,7.03l-.09.34h13.86l-1.26-1.27c-1.7-1.73-2.91-3.88-3.49-6.24l-7.94-32.47h41.87l-10.61,19.14c-1.45,2.62-3.61,4.87-6.36,6.07-.54.23-1.05.52-1.53.86-4.16,2.67-4.33,8.9-.41,11.97,5.31,4.72,15.19,1.36,14.97-6.25-.02-.28-.05-.55-.1-.81-.51-2.86-.28-5.81,1.06-8.39l9.45-18.23,9.63,18.24c1.31,2.48,1.93,5.33,1.38,8.07-.53,2.64.35,5.56,2.67,7.38,5.31,4.72,15.19,1.36,14.97-6.25-.23-3.28-2.33-5.52-5.01-6.62-2.69-1.1-4.82-3.23-6.24-5.76l-10.95-19.4h35.08v24.99c0,4.38-.7,10.85-2.07,15.01h13.77l-.09-.54c-.2-1.15,0-2.34.6-3.34,1.25-2.05,2.67-3.99,4.26-5.8l22.38-24.98c1.39-1.56,2.22-3.43,2.49-5.35h16.38v30.15c0,3.39-.71,6.74-2.07,9.84h12.92c-1.37-3.1-2.07-6.45-2.07-9.84v-30.15h5.73c2.21,0,4.18,1.15,5.56,2.88.34.43.74.83,1.19,1.18,5.31,4.72,15.19,1.36,14.97-6.25-.5-6.99-9.46-9.33-14.56-5.71ZM189.52,34.77v3.88c0,2.14-1.74,3.88-3.88,3.88h-45.72v-7.77h49.61ZM132.55,15.76c-2.45-2.92-2.07-7.3.85-9.75,1.26-1.06,2.81-1.62,4.44-1.62.2,0,.41,0,.61.03,1.84.16,3.51,1.03,4.7,2.45,2.45,2.92,2.07,7.3-.85,9.75-2.92,2.45-7.3,2.07-9.75-.85ZM70.11,42.54H24.39c-2.14,0-3.88-1.74-3.88-3.88s1.74-3.88,3.88-3.88h45.72v7.77ZM5.4,109.73c-.27-3.9,7.26-4.03,6.96,0-.51,2.55-6.48,2.61-6.96,0ZM35.99,107.54l5.44-22.24,5.44,22.24h-10.87ZM82.5,143.7c-.27-3.9,7.26-4.03,6.96,0-.51,2.55-6.48,2.61-6.96,0ZM71.61,18.21c-1.84-.16-3.51-1.03-4.7-2.45-2.45-2.92-2.07-7.3.85-9.75,1.26-1.06,2.81-1.62,4.44-1.62.2,0,.41,0,.61.03,1.84.16,3.51,1.03,4.7,2.45,2.45,2.92,2.07,7.3-.85,9.75-1.42,1.19-3.22,1.75-5.05,1.59ZM74.5,34.77h61.03v7.77h-61.03v-7.77ZM77.33,59.72c-1.8-3.9-2.83-8.22-2.83-12.79h61.03c0,5.09-1.27,9.89-3.47,14.12-2.71,5.19-6.85,9.5-11.9,12.42-4.47,2.58-9.63,4.07-15.14,4.07s-10.47-1.43-14.87-3.91c-5.6-3.15-10.1-8.03-12.81-13.91ZM105.24,102.44l-10.65-20.8c-.3-.58.24-1.25.87-1.07,3.04.87,6.24,1.34,9.56,1.34s6.73-.5,9.86-1.43c.63-.19,1.17.48.87,1.07l-10.51,20.89ZM128.53,143.7c-.51,2.55-6.48,2.61-6.96,0-.27-3.9,7.26-4.03,6.96,0ZM177.31,113.64l-21.65,25.33v-51.39l21.39,20.53c1.58,1.46,1.7,3.92.26,5.53ZM228.38,109.73c-.27-3.9,7.26-4.03,6.96,0-.51,2.55-6.48,2.61-6.96,0Z"/></g></svg>